<svg xmlns="http://www.w3.org/2000/svg" width="1200" height="660" viewBox="0 0 1200 660" role="img" aria-labelledby="title desc">
<title id="title">Excalidraw system map</title><desc id="desc">A skill-specific canvas diagram showing the operating components for Excalidraw.</desc>
<rect width="1200" height="660" rx="26" fill="#F8FAFC"/><rect width="1200" height="14" rx="7" fill="#7C3AED"/>
<style>text { font-family: Inter, ui-sans-serif, system-ui, -apple-system, BlinkMacSystemFont, "Segoe UI", sans-serif; }</style>
<text x="54" y="62" font-size="14" font-weight="750" fill="#7C3AED" text-anchor="start"><tspan x="54" dy="0">CANVAS SYSTEM MAP</tspan></text><text x="54" y="110" font-size="31" font-weight="760" fill="#0F172A" text-anchor="start"><tspan x="54" dy="0">Excalidraw</tspan></text><rect x="44" y="155" width="1112" height="475" rx="22" fill="#F5F3FF" stroke="#EDE9FE"/><rect x="70" y="190" width="150" height="395" rx="16" fill="#FFFFFF" stroke="#CBD5E1"/><text x="95" y="225" font-size="13" font-weight="750" fill="#7C3AED" text-anchor="start"><tspan x="95" dy="0">TOOLS</tspan></text><rect x="90" y="250" width="110" height="78" rx="16" fill="#FFFFFF" stroke="#CBD5E1"/><circle cx="120" cy="280" r="18" fill="#EDE9FE"/><text x="120" y="286" text-anchor="middle" font-size="17" font-weight="750" fill="#7C3AED">1</text><text x="148" y="285" font-size="17" font-weight="650" fill="#172033" text-anchor="start"><tspan x="148" dy="0">Architecture</tspan><tspan x="148" dy="23">or flow</tspan><tspan x="148" dy="23">brief</tspan></text><rect x="90" y="365" width="110" height="78" rx="16" fill="#FFFFFF" stroke="#CBD5E1"/><circle cx="120" cy="395" r="18" fill="#EDE9FE"/><text x="120" y="401" text-anchor="middle" font-size="17" font-weight="750" fill="#7C3AED">2</text><text x="148" y="400" font-size="17" font-weight="650" fill="#172033" text-anchor="start"><tspan x="148" dy="0">Shape</tspan><tspan x="148" dy="23">vocabulary</tspan></text><rect x="245" y="190" width="620" height="395" rx="16" fill="#FFFFFF" stroke="#CBD5E1"/><text x="275" y="225" font-size="13" font-weight="750" fill="#7C3AED" text-anchor="start"><tspan x="275" dy="0">WORKSPACE</tspan></text><rect x="335" y="295" width="440" height="150" rx="16" fill="#FFFFFF" stroke="#CBD5E1"/><circle cx="365" cy="325" r="18" fill="#EDE9FE"/><text x="365" y="331" text-anchor="middle" font-size="17" font-weight="750" fill="#7C3AED">3</text><text x="393" y="330" font-size="17" font-weight="650" fill="#172033" text-anchor="start"><tspan x="393" dy="0">Excalidraw scene graph</tspan></text><rect x="890" y="190" width="240" height="395" rx="16" fill="#FFFFFF" stroke="#CBD5E1"/><text x="915" y="225" font-size="13" font-weight="750" fill="#7C3AED" text-anchor="start"><tspan x="915" dy="0">INSPECT + EXPORT</tspan></text><rect x="915" y="260" width="190" height="90" rx="16" fill="#FFFFFF" stroke="#CBD5E1"/><circle cx="945" cy="290" r="18" fill="#EDE9FE"/><text x="945" y="296" text-anchor="middle" font-size="17" font-weight="750" fill="#7C3AED">4</text><text x="973" y="295" font-size="17" font-weight="650" fill="#172033" text-anchor="start"><tspan x="973" dy="0">Connector</tspan><tspan x="973" dy="23">routing</tspan></text><rect x="915" y="390" width="190" height="90" rx="16" fill="#FFFFFF" stroke="#CBD5E1"/><circle cx="945" cy="420" r="18" fill="#EDE9FE"/><text x="945" y="426" text-anchor="middle" font-size="17" font-weight="750" fill="#7C3AED">5</text><text x="973" y="425" font-size="17" font-weight="650" fill="#172033" text-anchor="start"><tspan x="973" dy="0">Editable</tspan><tspan x="973" dy="23">JSON diagram</tspan></text><defs><marker id="arr" viewBox="0 0 10 10" refX="9" refY="5" markerWidth="7" markerHeight="7" orient="auto"><path d="M0 0 L10 5 L0 10z" fill="#7C3AED"/></marker></defs></svg>